PathFileType	4	(X/Y/Z)	T1_P1_NoVision_Movement_3_0-681.trc
DataRate	CameraRate	NumFrames	NumMarkers	Units	OrigDataRate	OrigDataStartFrame	OrigNumFrames
60	60	4	27	m	60	0	681
Frame#	Time	RHip			RKnee			RAnkle			RBigToe			RSmallToe			RHeel			LHip			LKnee			LAnkle			LBigToe			LSmallToe			LHeel			Neck			Head			Nose			RShoulder			RElbow			RWrist			RThumb			RIndex			RPinky			LShoulder			LElbow			LWrist			LThumb			LIndex			LPinky		
		X1	Y1	Z1	X2	Y2	Z2	X3	Y3	Z3	X4	Y4	Z4	X5	Y5	Z5	X6	Y6	Z6	X7	Y7	Z7	X8	Y8	Z8	X9	Y9	Z9	X10	Y10	Z10	X11	Y11	Z11	X12	Y12	Z12	X13	Y13	Z13	X14	Y14	Z14	X15	Y15	Z15	X16	Y16	Z16	X17	Y17	Z17	X18	Y18	Z18	X19	Y19	Z19	X20	Y20	Z20	X21	Y21	Z21	X22	Y22	Z22	X23	Y23	Z23	X24	Y24	Z24	X25	Y25	Z25	X26	Y26	Z26	X27	Y27	Z27
1	0.016666666666666666	-88.67726065239005	3877.1840126921825	-588.4367619831038	242.89477612617083	3958.604184837817	-528.1231804007163	624.7778338246659	4148.649142651018	-524.0433284584786	697.5812864021614	4091.893059735002	-483.246367102588	707.6245077164227	4101.403638776865	-548.4804251852563	656.4863093753711	4194.475025082773	-532.0962043564116	-138.6712121082321	3997.1363191147257	-421.9152095375219	207.5816792034904	4025.9892548272596	-375.11908507867565	583.9774582260617	4198.449693795653	-382.2909853646205	681.1579686304746	4160.873874582185	-344.90602159998946	644.6893651211166	4195.8772077685735	-310.0784462217018	622.730874392274	4261.142623812701	-423.9586403431072	-697.701527132094	3770.235379931914	-550.5672346482835	-929.1449494925921	3592.286787197178	-491.06984644813735	-789.148193515443	3586.8471892851276	-437.26636781332223	-576.5156858768659	3712.718166091771	-682.0619061376243	-317.5988971386973	3773.4692653149164	-714.6803220873448	-54.11282491179946	3810.5158693158796	-676.2840410050156	59.395578265136756	3816.876424793996	-582.2349563157272	71.8003808936704	3793.8527785677015	-576.0966709685458	76.68656304272797	3829.6765715637357	-630.3277282446221	-641.9021003217149	3915.639284486324	-432.25066422594944	-396.4399449750365	4033.81950602507	-367.09537674859627	-148.05593852899847	4043.106307868159	-301.1076518651368	-8.503753760907513	4008.1989180787527	-327.44649898918925	15.605522157514368	4061.2690650184363	-290.5503979658511	-11.589096197058673	4023.8123727735165	-235.31112987585652
2	0.03333333333333333	-83.32207580195228	3860.858616336795	-581.7186562720383	242.49469740129354	3958.6783495496375	-522.7914348947369	624.6014656725149	4147.980671791196	-524.0371401582854	703.3625552651565	4096.091485585738	-485.6107056796914	701.9002941096628	4068.6619339587	-540.7774962333971	656.284751166952	4193.373414579199	-531.9636928991448	-133.46646305244957	3999.5687306036916	-423.010750815193	207.8817316008621	4026.198734900341	-375.28943686560706	577.5373119789755	4195.001451415164	-383.0883546925697	680.1240834870579	4187.707893862185	-350.8909080064333	649.44107310598	4248.934304645204	-337.131985471772	610.5600324862595	4252.736840086303	-422.28498046327667	-698.4908754461622	3743.0162341963523	-544.3526023786972	-928.887905943826	3591.2727329016425	-485.3858053365871	-789.203177920404	3586.784044837461	-437.1028454091676	-576.6252939387668	3712.882325975329	-682.2233921119159	-318.1632415661364	3791.9910130741728	-729.7093582836804	-53.950299791537425	3810.756563058161	-676.2062356304057	64.72418271173134	3819.127147097219	-581.6631605702112	71.68590647615584	3794.0644585839764	-576.064981394154	76.86917625407114	3829.5054073439183	-629.8639773040568	-641.8334309477254	3914.930924166586	-431.82260285088955	-401.23694296597455	4032.3052913915594	-366.9084222894323	-148.3016079348749	4043.388760800756	-301.2823484337481	-13.445127328043798	4006.9662919517345	-328.3348994362286	21.828451312903226	4086.3205491751482	-305.4551816028767	-10.400610238984964	4043.265826905461	-247.71920999903628
3	0.05	-89.16697847047597	3857.8671238119423	-574.1112948299727	250.0667014396647	3979.778628206972	-537.8796791384497	629.4150531684874	4169.829412647202	-539.0044153761307	698.0521397784148	4096.718253498633	-486.3004717751919	702.0703713708805	4090.536111767719	-556.8519520552505	651.7327595710148	4162.220156624507	-525.1670401900909	-133.48046945393307	3999.649834169107	-423.1433199231627	213.4485262533215	4030.3007331256053	-377.25832510763877	584.2075400883044	4198.525211891456	-382.4335400480716	680.1969869515983	4187.644869227026	-350.9453006553967	656.6867407138093	4253.523100974876	-339.2423974805235	605.1444117789489	4253.408045280186	-422.96249639767603	-697.7419026644203	3770.2831586168777	-550.4413398043604	-929.0672529678683	3592.3195182002587	-490.9607530646569	-789.115795953079	3586.8531977670095	-437.17896994973626	-576.6024503596602	3713.079559511697	-682.2811008432479	-317.4814235363475	3773.7750663591523	-714.7308370552997	-49.88748781743472	3794.6073553195442	-662.5499263013693	64.72109665934744	3819.1225441282477	-581.5867884607848	71.6667261375678	3794.043745559814	-575.9354885670103	76.21433043275341	3830.192324678041	-624.492947895201	-641.8887768390688	3915.3640209807645	-431.88921623985044	-401.11422651453154	4032.279295022771	-366.8777858743053	-148.10519354639115	4042.8738105212956	-301.0430895432992	-7.236544089705182	4010.3486466799523	-329.6260584303787	22.064916670979496	4086.0767733821876	-305.075273594483	-11.508785759356256	4023.9980252165633	-235.61285917832754
4	0.06666666666666667	-88.42254179038538	3877.0436889955276	-588.4859578287515	250.43857735752186	3979.8451998410756	-537.9270269703921	629.4057393586273	4169.248124217969	-538.8250330288481	709.4753816305196	4099.511885771453	-485.01584865513405	702.12057727436	4090.4870992427514	-556.8042629332723	651.7224240388232	4161.596304765587	-524.9319753240666	-133.31672892880772	3999.4966186096776	-422.9971626402034	216.12946506298158	4051.034995137335	-391.7468780288878	577.8031496834345	4195.225621202385	-383.19006792194085	686.2131196283229	4191.4477278111035	-350.55490377461086	648.5795824214233	4248.695387202627	-331.7149922083341	610.9104448705116	4252.648714214325	-422.20138604804555	-697.6893072173701	3770.133607087121	-550.332781881304	-929.124490981338	3592.417041834867	-491.05857477817403	-789.0562416641235	3586.808262292048	-437.21827248242255	-576.5856107246553	3712.9167630088323	-682.1880844333316	-317.4606574257804	3773.6594568350574	-714.6975772814063	-53.98277456614056	3810.2701399967227	-676.0409659051188	64.70779781025375	3818.8372883400757	-581.5424486608074	71.61041095807416	3793.8247169942024	-575.9199964371345	75.98305128553154	3829.8943869444533	-624.4751625276916	-641.8622430418817	3915.1653041171303	-431.81070302761134	-396.3534724231879	4033.3176292192243	-366.88447480437986	-148.00050082169113	4042.77320977339	-300.9813991501124	-7.0793560116415515	4010.5575071176963	-329.8034525109314	22.252393296561316	4086.28114544967	-305.5436769039036	-11.369758808053943	4023.7762063711266	-235.49652612499517
